<?xml version="1.0" encoding="UTF-8"?>
<svg width="88px" height="102px" viewBox="0 0 88 102" version="1.1" xmlns="http://www.w3.org/2000/svg" xmlns:xlink="http://www.w3.org/1999/xlink">
    <!-- Generator: Sketch 51.3 (57544) - http://www.bohemiancoding.com/sketch -->
    <title>Ably</title>
    <desc>Created with Sketch.</desc>
    <defs></defs>
    <g id="Page-1" stroke="none" stroke-width="1" fill="none" fill-rule="evenodd">
        <g id="Ably">
            <path d="M36,82 C27.179,82 20,74.82 20,66 C20,57.177 27.179,49.999 36,49.999 C44.822,49.999 52,57.177 52,66 C52,74.82 44.822,82 36,82 Z M36,29.999 C16.118,29.999 0,46.117 0,66 C0,85.88 16.118,102 36,102 C55.882,102 72,85.88 72,66 C72,46.117 55.882,29.999 36,29.999 Z" id="Fill-1" fill="#ED760A"></path>
            <path d="M22.062,27.271 C21.714,27.387 21.17,27.545 20.618,27.545 C18.985,27.544 17.581,26.566 16.959,25.163 L16.958,25.163 L10.553,11.427 L10.623,11.579 C10.354,11.04 10.202,10.433 10.202,9.79 C10.202,8.273 11.082,6.906 12.417,6.211 C19.483,2.562 27.499,0.499 36,0.499 C64.443,0.499 87.5,23.556 87.5,51.998 C87.5,67.138 80.967,80.753 70.565,90.177 L70.561,90.183 C70.441,90.281 70.345,90.33 70.207,90.33 C69.931,90.33 69.707,90.105 69.707,89.83 C69.707,89.695 69.738,89.578 69.802,89.469 C74.436,82.812 77.156,74.725 77.156,66 C77.156,43.27 58.729,24.843 36,24.843 C31.106,24.842 26.415,25.701 22.062,27.271" id="Fill-4" fill="#F9A01B"></path>
        </g>
    </g>
</svg>